<svg height="482pt" viewBox="0 -1 482.26746 482" width="482pt" xmlns="http://www.w3.org/2000/svg"><path d="m344 424.132812h-288v-368h-48v416h336zm0 0" fill="#006df0"/><path d="m8 472.132812h336v-320c0 176.871094-150.28125 320-336 320zm0 0" fill="#004fac"/><path d="m392 424.132812h-336v-416h240l96 96zm0 0" fill="#f1f2f2"/><path d="m56 424.132812h336v-320c0 176.871094-150.28125 320-336 320zm0 0" fill="#d1d3d4"/><path d="m392 104.132812-96-96v96zm0 0" fill="#2488ff"/><path d="m216 392.132812 79.191406-11.3125-67.878906-67.886718zm0 0" fill="#6d6e71"/><path d="m227.316406 312.933594 135.765625-135.761719 67.882813 67.882813-135.765625 135.761718zm0 0" fill="#d80027"/><path d="m363.078125 177.167969 22.625-22.625 67.882813 67.878906-22.625 22.628906zm0 0" fill="#ff9811"/><path d="m453.601562 222.429688 11.320313-11.3125c12.496094-12.496094 12.496094-32.757813 0-45.253907l-22.632813-22.632812c-12.496093-12.5-32.761718-12.5-45.257812 0l-5.03125 5.023437-6.296875 6.296875zm0 0" fill="#a7a9ac"/><path d="m144 72.132812c0 13.253907-10.746094 24-24 24s-24-10.746093-24-24c0-13.253906 10.746094-24 24-24s24 10.746094 24 24zm0 0" fill="#d80027"/><path d="m104 136.132812h160v56h-160zm0 0" fill="#ffcd00"/><g fill="#231f20"><path d="m470.550781 160.207031-22.621093-22.632812c-12.660157-12.789063-32.359376-15.421875-47.929688-6.402344v-27.039063c0-2.121093-.84375-4.15625-2.34375-5.65625l-96-96c-1.5-1.5-3.535156-2.34375-5.65625-2.34375h-240c-4.417969 0-8 3.582032-8 8v40h-40c-4.417969 0-8 3.582032-8 8v416c0 4.417969 3.582031 8 8 8h336c4.417969 0 8-3.582031 8-8v-40h40c4.417969 0 8-3.582031 8-8v-136.800781l70.550781-70.550781c15.621094-15.621094 15.621094-40.945312 0-56.566406zm-28.277343 62.222657-11.3125 11.304687-56.5625-56.5625 11.3125-11.308594zm-147.074219 147.078124-56.574219-56.574218 124.453125-124.449219 56.570313 56.570313zm-62.222657-39.605468 45.253907 45.261718-52.796875 7.539063zm139.710938-233.769532h-68.6875v-68.6875zm-36.6875 368h-320v-400h32v360c0 4.417969 3.582031 8 8 8h280zm48-48h-320v-400h224v88c0 4.417969 3.582031 8 8 8h88v32.800782l-3.953125 3.960937-158.398437 158.398438c-.675782.695312-1.21875 1.511719-1.601563 2.402343-.265625.683594-.488281 1.386719-.65625 2.101563l-11.3125 79.199219c-.328125 2.296875.355469 4.625 1.875 6.378906s3.726563 2.757812 6.046875 2.757812c.378906 0 .761719-.023437 1.136719-.078124l79.199219-11.3125c.71875-.171876 1.425781-.394532 2.113281-.664063.890625-.378906 1.703125-.921875 2.398437-1.601563l83.152344-83.144531zm75.238281-210.671874-5.652343 5.65625-56.570313-56.582032.738281-.738281 4.917969-4.925781c9.5-9.066406 24.445313-9.066406 33.945313 0l22.621093 22.628906c9.375 9.375 9.375 24.574219 0 33.945312zm0 0"/><path d="m380.046875 250.710938 11.3125-11.3125 11.316406 11.3125-11.316406 11.316406zm0 0"/><path d="m289.542969 341.226562 79.195312-79.195312 11.316407 11.3125-79.199219 79.195312zm0 0"/><path d="m120 104.132812c17.671875 0 32-14.324218 32-32 0-17.671874-14.328125-32-32-32s-32 14.328126-32 32c0 17.675782 14.328125 32 32 32zm0-48c8.835938 0 16 7.164063 16 16 0 8.835938-7.164062 16-16 16s-16-7.164062-16-16c0-8.835937 7.164062-16 16-16zm0 0"/><path d="m168 64.132812h96v16h-96zm0 0"/><path d="m96 200.132812h176v-72h-176zm16-56h144v40h-144zm0 0"/><path d="m96 232.132812h16v16h-16zm0 0"/><path d="m128 232.132812h112v16h-112zm0 0"/><path d="m96 264.132812h16v16h-16zm0 0"/><path d="m128 264.132812h112v16h-112zm0 0"/><path d="m96 296.132812h16v16h-16zm0 0"/><path d="m128 296.132812h80v16h-80zm0 0"/><path d="m96 328.132812h16v16h-16zm0 0"/><path d="m128 328.132812h72v16h-72zm0 0"/><path d="m96 360.132812h16v16h-16zm0 0"/><path d="m128 360.132812h64v16h-64zm0 0"/></g></svg>